<?xml version="1.0" encoding="UTF-8" standalone="no"?>
<!-- Created with Inkscape (http://www.inkscape.org/) -->

<svg
   width="249.99998mm"
   height="349.99994mm"
   viewBox="0 0 249.99998 349.99994"
   version="1.1"
   id="svg1"
   xml:space="preserve"
   xmlns:xlink="http://www.w3.org/1999/xlink"
   xmlns="http://www.w3.org/2000/svg"
   xmlns:svg="http://www.w3.org/2000/svg"><defs
     id="defs1"><linearGradient
       id="swatch50"><stop
         style="stop-color:#000000;stop-opacity:1;"
         offset="0"
         id="stop50" /></linearGradient></defs><g
     id="layer5"
     transform="translate(-2664.5481,-368.86011)"><g
       id="g58"
       transform="translate(20.000077)"><g
         id="use18"
         transform="translate(2644.548,368.86014)"><rect
           style="fill:#110222;fill-opacity:1;stroke-width:0.754366"
           id="rect50"
           width="250"
           height="350"
           x="0"
           y="0"
           ry="28.787729" /><rect
           style="fill:#5c2f2f;fill-opacity:1;stroke-width:0.702585"
           id="rect51"
           width="230"
           height="330"
           x="10.000002"
           y="10.000003"
           ry="20.407524" /></g><use
         x="0"
         y="0"
         xlink:href="#path71"
         id="use35"
         transform="matrix(3.1051409,0,0,3.1051409,1845.4096,420.71996)"
         style="display:inline" /><use
         x="0"
         y="0"
         xlink:href="#rect72"
         id="use50"
         transform="matrix(2.7241165,-1.5727694,1.5727694,2.7241165,1767.2389,1001.6496)"
         style="display:inline" /><use
         x="0"
         y="0"
         xlink:href="#path77-1-4"
         id="use51"
         transform="matrix(3.1051383,0,0,3.1051383,1715.4361,417.44253)"
         style="display:inline;fill:#5c2f2f;fill-opacity:1" /></g></g><g
     id="layer2"
     style="display:inline"
     transform="translate(-2664.5481,-368.86011)"><path
       id="path71"
       style="display:inline;stroke-width:0.0689838"
       d="m 283.18101,14.035851 v 14.61967 c -1e-5,6.19004 3.79832,11.48159 9.16314,13.614135 v 1.20234 c -10.17683,1.72043 -17.35354,8.141 -17.35345,15.52508 v 6.28082 h 22.62492 22.62492 v -6.28082 c 10e-5,-7.38408 -7.17662,-13.80465 -17.35345,-15.52508 v -1.20234 c 5.36483,-2.132545 9.16314,-7.424085 9.16314,-13.614135 v -14.61967 l -7.21423,2.77589 -7.21424,-2.77589 h -0.0123 l -7.21423,2.77589 z" /><path
       id="rect72"
       style="display:inline;fill:#000000;fill-rule:nonzero;stroke:#000000;stroke-width:1.065;stroke-linejoin:round;stroke-dasharray:none;stroke-opacity:1"
       d="m 363.91968,40.189372 -1.58531,4.19222 h 1.55339 l -2.33516,6.63091 h 3.59302 l 2.33516,-6.63091 h 12.81399 l 1.35419,-4.19222 z" /><path
       id="path77-1-4"
       style="display:inline;fill-rule:nonzero;stroke-width:0.339474"
       d="m 134.81738,555.9652 a 7.9524949,7.9487046 30 0 0 -6.52987,3.95027 7.9524949,7.9487046 30 0 0 -0.1561,7.63017 17.301159,17.837169 30 0 1 2.2424,-6.42565 17.301159,17.837169 30 0 1 4.44357,-5.15479 z"
       transform="rotate(-120,83.694772,238.82204)" /></g></svg>
