<?xml version="1.0" encoding="UTF-8" standalone="no"?>
<!-- Created with Inkscape (http://www.inkscape.org/) -->

<svg
   width="249.99998mm"
   height="350mm"
   viewBox="0 0 249.99998 350"
   version="1.1"
   id="svg1"
   xml:space="preserve"
   xmlns="http://www.w3.org/2000/svg"
   xmlns:svg="http://www.w3.org/2000/svg"><defs
     id="defs1"><linearGradient
       id="swatch50"><stop
         style="stop-color:#000000;stop-opacity:1;"
         offset="0"
         id="stop50" /></linearGradient></defs><g
     id="layer2"
     style="display:inline"
     transform="translate(-3.8146972e-6,-747.72023)"><g
       id="g66"><g
         id="g7"
         transform="translate(3.8146972e-6,747.72028)"><rect
           style="fill:#110222;fill-opacity:1;stroke-width:0.754366"
           id="rect1"
           width="250"
           height="350"
           x="0"
           y="0"
           ry="28.787729" /><rect
           style="fill:#1d1d46;fill-opacity:1;stroke-width:0.702585"
           id="rect2"
           width="230"
           height="330"
           x="10.000002"
           y="10.000003"
           ry="20.407524" /></g><path
         id="path7"
         style="fill:#000000;stroke:#000000;stroke-width:0.950476;stroke-linejoin:round;stroke-dasharray:none;stroke-opacity:1"
         d="m 125.0001,861.17349 a 55.671851,65.779873 0 0 0 -39.279354,19.16417 126.29069,149.54738 0 0 1 39.279354,-7.41704 126.29069,149.54738 0 0 1 39.27979,7.41755 55.671851,65.779873 0 0 0 -39.27979,-19.16468 z" /><path
         id="use47"
         style="display:inline;stroke-width:0.0876218"
         d="m 105.79813,805.66918 v 18.56961 c -1e-5,7.86246 4.82455,14.58368 11.63883,17.2924 v 1.52719 c -12.9264,2.18525 -22.042109,10.34053 -22.041995,19.71964 v 7.97777 h 28.737715 28.73771 v -7.97777 c 1.3e-4,-9.37911 -9.11559,-17.53439 -22.042,-19.71964 v -1.52719 c 6.8143,-2.70872 11.63884,-9.42992 11.63884,-17.2924 v -18.56961 l -9.16337,3.52588 -9.16338,-3.52588 h -0.0156 l -9.16336,3.52588 z" /><g
         id="g61"
         transform="matrix(-0.63508985,-1.1000079,1.1000079,-0.63508985,-109.44289,1231.3333)"><path
           id="use53"
           style="display:inline;stroke-width:0.0689838"
           d="m 103.0117,189.1771 v 14.61967 c -1e-5,6.19004 3.79832,11.48159 9.16314,13.61414 v 1.20234 c -10.17683,1.72043 -17.35354,8.141 -17.35345,15.52508 v 6.28082 h 22.62492 22.62492 v -6.28082 c 10e-5,-7.38408 -7.17662,-13.80465 -17.35345,-15.52508 v -1.20234 c 5.36483,-2.13255 9.16314,-7.42409 9.16314,-13.61414 V 189.1771 l -7.21423,2.77589 -7.21424,-2.77589 h -0.0123 l -7.21423,2.77589 z" /><path
           id="use59"
           style="display:inline;fill:#25254c;fill-opacity:1;fill-rule:nonzero;stroke-width:0.339474"
           d="m 110.76035,210.06265 a 7.9487046,7.9524949 0 0 0 6.68597,3.6799 7.9487046,7.9524949 0 0 0 6.68597,-3.6799 17.837169,17.301159 0 0 1 -6.68597,1.27085 17.837169,17.301159 0 0 1 -6.68597,-1.27085 z" /></g><path
         id="use61"
         style="fill:#000000;stroke:#000000;stroke-width:0.950474;stroke-linejoin:round;stroke-dasharray:none;stroke-opacity:1"
         d="m 71.042371,954.63064 a 55.671851,65.779873 60 0 0 36.236339,24.43483 126.29069,149.54738 60 0 1 -26.063033,-30.30839 126.29069,149.54738 60 0 1 -13.216109,-37.72607 55.671851,65.779873 60 0 0 3.042803,43.59963 z" /><g
         id="g63"
         transform="matrix(-0.63392929,1.1006771,-1.1006771,-0.63392929,563.50804,877.33704)"><path
           id="use62"
           style="display:inline;stroke-width:0.0689838"
           d="m 188.14538,189.1771 v 14.61967 c -10e-6,6.19004 3.79832,11.48159 9.16314,13.61414 v 1.20234 c -10.17683,1.72043 -17.35354,8.141 -17.35345,15.52508 v 6.28082 h 22.62492 22.62492 v -6.28082 c 10e-5,-7.38408 -7.17662,-13.80465 -17.35345,-15.52508 v -1.20234 c 5.36483,-2.13255 9.16314,-7.42409 9.16314,-13.61414 V 189.1771 l -7.21423,2.77589 -7.21424,-2.77589 h -0.0123 l -7.21423,2.77589 z" /><path
           id="use63"
           style="display:inline;fill:#25254c;fill-opacity:1;fill-rule:nonzero;stroke-width:0.339474"
           d="m 209.26595,212.1793 a 7.9487046,7.9524949 0 0 0 -6.68597,-3.6799 7.9487046,7.9524949 0 0 0 -6.68597,3.6799 17.837169,17.301159 -180 0 1 6.68598,-1.27085 17.837169,17.301159 -180 0 1 6.68596,1.27085 z" /></g><path
         id="use64"
         style="fill:#000000;stroke:#000000;stroke-width:0.950474;stroke-linejoin:round;stroke-dasharray:none;stroke-opacity:1"
         d="m 178.95752,954.63086 a 65.779873,55.671851 30 0 0 3.04303,-43.59901 149.54738,126.29069 30 0 1 -13.21633,37.72545 149.54738,126.29069 30 0 1 -26.06368,30.30852 65.779873,55.671851 30 0 0 36.23698,-24.43496 z" /><path
         id="use65"
         style="display:inline;fill:#000000;fill-rule:nonzero;stroke:#000000;stroke-width:1.74179;stroke-linejoin:round;stroke-dasharray:none;stroke-opacity:1"
         d="m 33.971356,923.59126 4.44053,5.83206 1.346283,-2.1545 7.17304,8.98563 3.113978,-4.98341 -7.173041,-8.98563 11.105554,-17.7726 -4.640835,-5.51151 z" /><path
         id="use66"
         style="display:inline;fill:#000000;fill-rule:nonzero;stroke:#000000;stroke-width:1.74179;stroke-linejoin:round;stroke-dasharray:none;stroke-opacity:1"
         d="m 225.36162,923.94121 -6.59629,-3.19692 -0.22774,2.53032 -10.45873,-4.77588 -0.52676,5.85266 10.45873,4.77588 -1.87863,20.8727 6.63017,2.82045 z" /></g></g></svg>
