<?xml version="1.0" encoding="UTF-8" standalone="no"?>
<!-- Created with Inkscape (http://www.inkscape.org/) -->

<svg
   width="249.99998mm"
   height="349.99994mm"
   viewBox="0 0 249.99998 349.99994"
   version="1.1"
   id="svg1"
   xml:space="preserve"
   xmlns:xlink="http://www.w3.org/1999/xlink"
   xmlns="http://www.w3.org/2000/svg"
   xmlns:svg="http://www.w3.org/2000/svg"><defs
     id="defs1"><linearGradient
       id="swatch50"><stop
         style="stop-color:#000000;stop-opacity:1;"
         offset="0"
         id="stop50" /></linearGradient></defs><g
     id="layer1"
     transform="translate(-1773.0321,-368.86011)"><g
       id="g4"
       transform="translate(1.9073486e-6,368.86014)"><rect
         style="fill:#110222;fill-opacity:1;stroke-width:0.754366"
         id="rect3"
         width="250"
         height="350"
         x="0"
         y="0"
         ry="28.787729" /><rect
         style="fill:#3b3b4d;fill-opacity:1;stroke-width:0.702585"
         id="rect4"
         width="230"
         height="330"
         x="10.000002"
         y="10.000003"
         ry="20.407524" /></g></g><g
     id="layer5"
     transform="translate(-1773.0321,-368.86011)"><g
       id="g20"
       transform="translate(1485.86)"><use
         x="0"
         y="0"
         xlink:href="#g4"
         id="use4"
         transform="translate(287.17202)" /><use
         x="0"
         y="0"
         xlink:href="#path71"
         id="use9"
         transform="matrix(3.1051409,0,0,3.1051409,-511.96642,420.71996)"
         style="display:inline" /><use
         x="0"
         y="0"
         xlink:href="#g102"
         id="use10"
         transform="matrix(0.57184478,0,0,0.57184478,-166.0185,510.95586)" /><use
         x="0"
         y="0"
         xlink:href="#g106"
         id="use11"
         transform="matrix(0.20993381,0,0,0.20993381,-55.799618,386.71457)" /><use
         x="0"
         y="0"
         xlink:href="#g106"
         id="use12"
         transform="matrix(-0.20993381,0,0,-0.20993381,880.14363,701.0057)" /></g></g><g
     id="layer2"
     style="display:inline"
     transform="translate(-1773.0321,-368.86011)"><path
       id="path71"
       style="display:inline;stroke-width:0.0689838"
       d="m 283.18101,14.035851 v 14.61967 c -1e-5,6.19004 3.79832,11.48159 9.16314,13.614135 v 1.20234 c -10.17683,1.72043 -17.35354,8.141 -17.35345,15.52508 v 6.28082 h 22.62492 22.62492 v -6.28082 c 10e-5,-7.38408 -7.17662,-13.80465 -17.35345,-15.52508 v -1.20234 c 5.36483,-2.132545 9.16314,-7.424085 9.16314,-13.614135 v -14.61967 l -7.21423,2.77589 -7.21424,-2.77589 h -0.0123 l -7.21423,2.77589 z" /></g><g
     id="layer4"
     transform="translate(-1773.0321,-368.86011)"><g
       id="g106"
       transform="translate(930.75021,1.5059719)"><rect
         style="opacity:1;fill:#ffe16a;fill-opacity:1;fill-rule:nonzero;stroke-width:0.388936"
         id="rect90"
         width="155.575"
         height="155.575"
         x="806.82373"
         y="17.307037"
         ry="29.99906" /><g
         id="g102"
         transform="translate(544.2511,-23.156631)"><path
           id="rect91"
           style="opacity:1;fill:#ffc80d;fill-opacity:1;fill-rule:nonzero;stroke-width:0.423768"
           d="m 296.03207,73.818748 v 87.957592 c 0,6.09217 5.24537,10.99658 11.76104,10.99658 h 53.47168 c 6.51568,0 11.76104,-4.90441 11.76104,-10.99658 v -16.13803 h 11.36882 c 7.6675,0 13.83998,-5.77177 13.83998,-12.94087 v -23.02665 c 0,-7.16911 -6.17248,-12.940384 -13.83998,-12.940384 H 373.02583 V 73.818748 Z m 76.99376,32.005062 h 9.18187 c 4.65334,0 6.81148,2.44432 6.81148,6.7952 v 17.65988 c 0,4.35087 -2.15814,6.26601 -6.81148,6.26601 h -9.18187 z" /><g
           id="g101"
           transform="matrix(0.98245614,0,0,0.98245614,5.8572201,1.2533682)"><circle
             style="opacity:1;fill:#ffeeaa;fill-opacity:1;fill-rule:nonzero;stroke-width:0.264583"
             id="path97"
             cx="349.62665"
             cy="71.841087"
             r="8.9136181" /><circle
             style="opacity:1;fill:#ffeeaa;fill-opacity:1;fill-rule:nonzero;stroke-width:0.214186"
             id="path98"
             cx="317.36472"
             cy="73.104973"
             r="10.177489" /><circle
             style="opacity:1;fill:#ffeeaa;fill-opacity:1;fill-rule:nonzero;stroke-width:0.264583"
             id="path99"
             cx="300.60175"
             cy="72.439781"
             r="11.640919" /><circle
             style="opacity:1;fill:#ffeeaa;fill-opacity:1;fill-rule:nonzero;stroke-width:0.241873"
             id="path100"
             cx="333.86154"
             cy="70.444191"
             r="14.168662" /><circle
             style="opacity:1;fill:#ffeeaa;fill-opacity:1;fill-rule:nonzero;stroke-width:0.250019"
             id="path101"
             cx="365.0592"
             cy="72.905411"
             r="13.703026" /></g></g></g></g></svg>
