<?xml version="1.0" encoding="UTF-8" standalone="no"?>
<!-- Created with Inkscape (http://www.inkscape.org/) -->

<svg
   width="249.99998mm"
   height="349.99994mm"
   viewBox="0 0 249.99998 349.99994"
   version="1.1"
   id="svg1"
   xml:space="preserve"
   xmlns:xlink="http://www.w3.org/1999/xlink"
   xmlns="http://www.w3.org/2000/svg"
   xmlns:svg="http://www.w3.org/2000/svg"><defs
     id="defs1"><linearGradient
       id="swatch50"><stop
         style="stop-color:#000000;stop-opacity:1;"
         offset="0"
         id="stop50" /></linearGradient></defs><g
     id="layer5"
     transform="translate(-2961.7202,-368.86011)"><g
       id="g59"
       transform="translate(20.000086)"><g
         id="use19"
         transform="translate(2941.72,368.86014)"><rect
           style="fill:#110222;fill-opacity:1;stroke-width:0.754366"
           id="rect55"
           width="250"
           height="350"
           x="0"
           y="0"
           ry="28.787729" /><rect
           style="fill:#557a80;fill-opacity:1;stroke-width:0.702585"
           id="rect56"
           width="230"
           height="330"
           x="10.000002"
           y="10.000003"
           ry="20.407524" /></g><use
         x="0"
         y="0"
         xlink:href="#path71"
         id="use36"
         transform="matrix(3.1051409,0,0,3.1051409,2142.5816,420.71996)"
         style="display:inline" /><use
         x="0"
         y="0"
         xlink:href="#path77-1"
         id="use52"
         transform="matrix(2.9287319,0,0,2.9287319,2072.4933,379.62467)"
         style="display:inline;fill:#557a80;fill-opacity:1" /><use
         x="0"
         y="0"
         xlink:href="#rect72"
         id="use58"
         transform="matrix(2.7241165,-1.5727694,1.5727694,2.7241165,1911.5257,1001.6496)"
         style="display:inline" /></g></g><g
     id="layer2"
     style="display:inline"
     transform="translate(-2961.7202,-368.86011)"><path
       id="path71"
       style="display:inline;stroke-width:0.0689838"
       d="m 283.18101,14.035851 v 14.61967 c -1e-5,6.19004 3.79832,11.48159 9.16314,13.614135 v 1.20234 c -10.17683,1.72043 -17.35354,8.141 -17.35345,15.52508 v 6.28082 h 22.62492 22.62492 v -6.28082 c 10e-5,-7.38408 -7.17662,-13.80465 -17.35345,-15.52508 v -1.20234 c 5.36483,-2.132545 9.16314,-7.424085 9.16314,-13.614135 v -14.61967 l -7.21423,2.77589 -7.21424,-2.77589 h -0.0123 l -7.21423,2.77589 z" /><path
       id="rect72"
       style="display:inline;fill:#000000;fill-rule:nonzero;stroke:#000000;stroke-width:1.065;stroke-linejoin:round;stroke-dasharray:none;stroke-opacity:1"
       d="m 363.91968,40.189372 -1.58531,4.19222 h 1.55339 l -2.33516,6.63091 h 3.59302 l 2.33516,-6.63091 h 12.81399 l 1.35419,-4.19222 z" /><path
       id="path77-1"
       style="display:inline;fill-rule:nonzero;stroke-width:0.339474"
       d="m -12.719,175.93519 a 7.9487046,7.9524949 60 0 0 0.1561,7.63017 7.9487046,7.9524949 60 0 0 6.5298696,3.95027 17.837169,17.301159 60 0 1 -4.4435796,-5.1548 17.837169,17.301159 60 0 1 -2.24239,-6.42564 z"
       transform="rotate(120,202.18571,218.10643)" /></g></svg>
