<?xml version="1.0" encoding="UTF-8" standalone="no"?>
<!-- Created with Inkscape (http://www.inkscape.org/) -->

<svg
   width="155.575mm"
   height="155.575mm"
   viewBox="0 0 155.575 155.575"
   version="1.1"
   id="svg1"
   xml:space="preserve"
   xmlns="http://www.w3.org/2000/svg"
   xmlns:svg="http://www.w3.org/2000/svg"><defs
     id="defs1"><linearGradient
       id="swatch50"><stop
         style="stop-color:#000000;stop-opacity:1;"
         offset="0"
         id="stop50" /></linearGradient></defs><g
     id="layer4"
     transform="translate(-1923.724,-18.813008)"><g
       id="g107"
       transform="translate(930.75023,1.5059719)"><rect
         style="fill:#ad8ab5;fill-opacity:1;fill-rule:nonzero;stroke-width:0.388936"
         id="rect90-6"
         width="155.575"
         height="155.575"
         x="992.97375"
         y="17.307037"
         ry="29.99906" /><g
         id="g105"
         transform="matrix(1.098095,0,0,1.098095,485.16541,-44.838757)"><path
           id="path102"
           style="opacity:1;fill:#9d6387;fill-opacity:1;fill-rule:nonzero;stroke-width:0.231679"
           d="m 517.44025,75.58309 c -2.90422,0 -5.24222,2.338006 -5.24222,5.242213 v 2.329922 c 0,2.904207 2.338,5.242212 5.24222,5.242212 h 3.31682 v 13.253223 c -15.10898,5.31557 -25.21781,19.5882 -25.21782,35.60496 -10e-5,20.84551 16.89842,37.74423 37.74393,37.74438 20.84569,1e-4 37.74448,-16.89869 37.74438,-37.74438 -10e-6,-16.01676 -10.10885,-30.28939 -25.21783,-35.60496 V 88.397437 h 3.31683 c 2.9042,0 5.24221,-2.338005 5.24221,-5.242212 v -2.329922 c 0,-2.904207 -2.33801,-5.242213 -5.24221,-5.242213 z" /><circle
           style="opacity:1;fill:#d3acc0;fill-opacity:1;fill-rule:nonzero;stroke-width:0.357402"
           id="path103"
           cx="541.38208"
           cy="122.33462"
           r="6.4695973" /><circle
           style="opacity:1;fill:#d3acc0;fill-opacity:1;fill-rule:nonzero;stroke-width:0.222389"
           id="path104"
           cx="545.35999"
           cy="151.23975"
           r="7.6039548" /><circle
           style="opacity:1;fill:#d3acc0;fill-opacity:1;fill-rule:nonzero;stroke-width:0.296423"
           id="path105"
           cx="518.79962"
           cy="140.95818"
           r="8.9429617" /></g></g></g></svg>
