<?xml version="1.0" encoding="UTF-8" standalone="no"?>
<!-- Created with Inkscape (http://www.inkscape.org/) -->

<svg
   width="155.575mm"
   height="155.575mm"
   viewBox="0 0 155.575 155.575"
   version="1.1"
   id="svg1"
   xml:space="preserve"
   xmlns="http://www.w3.org/2000/svg"
   xmlns:svg="http://www.w3.org/2000/svg"><defs
     id="defs1"><linearGradient
       id="swatch50"><stop
         style="stop-color:#000000;stop-opacity:1;"
         offset="0"
         id="stop50" /></linearGradient></defs><g
     id="layer4"
     transform="translate(-1737.574,-18.813008)"><g
       id="g106"
       transform="translate(930.75021,1.5059719)"><rect
         style="opacity:1;fill:#ffe16a;fill-opacity:1;fill-rule:nonzero;stroke-width:0.388936"
         id="rect90"
         width="155.575"
         height="155.575"
         x="806.82373"
         y="17.307037"
         ry="29.99906" /><g
         id="g102"
         transform="translate(544.2511,-23.156631)"><path
           id="rect91"
           style="opacity:1;fill:#ffc80d;fill-opacity:1;fill-rule:nonzero;stroke-width:0.423768"
           d="m 296.03207,73.818748 v 87.957592 c 0,6.09217 5.24537,10.99658 11.76104,10.99658 h 53.47168 c 6.51568,0 11.76104,-4.90441 11.76104,-10.99658 v -16.13803 h 11.36882 c 7.6675,0 13.83998,-5.77177 13.83998,-12.94087 v -23.02665 c 0,-7.16911 -6.17248,-12.940384 -13.83998,-12.940384 H 373.02583 V 73.818748 Z m 76.99376,32.005062 h 9.18187 c 4.65334,0 6.81148,2.44432 6.81148,6.7952 v 17.65988 c 0,4.35087 -2.15814,6.26601 -6.81148,6.26601 h -9.18187 z" /><g
           id="g101"
           transform="matrix(0.98245614,0,0,0.98245614,5.8572201,1.2533682)"><circle
             style="opacity:1;fill:#ffeeaa;fill-opacity:1;fill-rule:nonzero;stroke-width:0.264583"
             id="path97"
             cx="349.62665"
             cy="71.841087"
             r="8.9136181" /><circle
             style="opacity:1;fill:#ffeeaa;fill-opacity:1;fill-rule:nonzero;stroke-width:0.214186"
             id="path98"
             cx="317.36472"
             cy="73.104973"
             r="10.177489" /><circle
             style="opacity:1;fill:#ffeeaa;fill-opacity:1;fill-rule:nonzero;stroke-width:0.264583"
             id="path99"
             cx="300.60175"
             cy="72.439781"
             r="11.640919" /><circle
             style="opacity:1;fill:#ffeeaa;fill-opacity:1;fill-rule:nonzero;stroke-width:0.241873"
             id="path100"
             cx="333.86154"
             cy="70.444191"
             r="14.168662" /><circle
             style="opacity:1;fill:#ffeeaa;fill-opacity:1;fill-rule:nonzero;stroke-width:0.250019"
             id="path101"
             cx="365.0592"
             cy="72.905411"
             r="13.703026" /></g></g></g></g></svg>
