<?xml version="1.0" encoding="UTF-8" standalone="no"?>
<!-- Created with Inkscape (http://www.inkscape.org/) -->

<svg
   width="155.575mm"
   height="155.575mm"
   viewBox="0 0 155.575 155.575"
   version="1.1"
   id="svg1"
   xml:space="preserve"
   xmlns="http://www.w3.org/2000/svg"
   xmlns:svg="http://www.w3.org/2000/svg"><defs
     id="defs1"><linearGradient
       id="swatch50"><stop
         style="stop-color:#000000;stop-opacity:1;"
         offset="0"
         id="stop50" /></linearGradient></defs><g
     id="layer4"
     transform="translate(-1551.4239,-18.813008)"><g
       id="g112"
       transform="translate(186.15009)"><rect
         style="fill:#de8787;fill-opacity:1;fill-rule:nonzero;stroke-width:0.388936"
         id="rect90-4-7"
         width="155.575"
         height="155.575"
         x="1365.2738"
         y="18.813009"
         ry="29.99906" /><g
         id="g111"
         transform="rotate(45,1721.6336,206.11257)"><path
           id="rect109"
           style="opacity:1;fill:#cd4d4d;fill-opacity:1;fill-rule:nonzero;stroke-width:0.264583"
           d="m 1447.2165,246.28418 -17.9208,27.37353 4.2333,82.31384 h -15.287 a 4.1392153,4.1392153 135 0 0 -4.1392,4.13922 v 4.13897 a 4.1392153,4.1392153 45 0 0 4.1392,4.13922 h 21.143 l 0,27.09323 a 4.1392153,4.1392153 45 0 0 4.1392,4.13922 h 7.3847 a 4.1392153,4.1392153 135 0 0 4.1392,-4.13922 v -27.09323 h 21.143 a 4.1392153,4.1392153 135 0 0 4.1392,-4.13922 v -4.13897 a 4.1392153,4.1392153 45 0 0 -4.1392,-4.13922 h -15.2871 l 4.2333,-82.31384 z" /><path
           id="rect109-5"
           style="fill:#d35f5f;fill-opacity:1;fill-rule:nonzero;stroke-width:0.264583"
           d="m 1433.529,355.97155 h -15.287 a 4.1392153,4.1392153 135 0 0 -4.1392,4.13922 v 4.13897 a 4.1392153,4.1392153 45 0 0 4.1392,4.13922 h 21.143 l 0,27.09323 a 4.1392153,4.1392153 45 0 0 4.1392,4.13922 h 7.3847 a 4.1392153,4.1392153 135 0 0 4.1392,-4.13922 v -27.09323 h 21.143 a 4.1392153,4.1392153 135 0 0 4.1392,-4.13922 v -4.13897 a 4.1392153,4.1392153 45 0 0 -4.1392,-4.13922 h -15.2871 z" /></g></g></g></svg>
