<?xml version="1.0" encoding="UTF-8" standalone="no"?>
<!-- Created with Inkscape (http://www.inkscape.org/) -->

<svg
   width="249.99998mm"
   height="349.99994mm"
   viewBox="0 0 249.99998 349.99994"
   version="1.1"
   id="svg1"
   xml:space="preserve"
   xmlns:xlink="http://www.w3.org/1999/xlink"
   xmlns="http://www.w3.org/2000/svg"
   xmlns:svg="http://www.w3.org/2000/svg"><defs
     id="defs1"><linearGradient
       id="swatch50"><stop
         style="stop-color:#000000;stop-opacity:1;"
         offset="0"
         id="stop50" /></linearGradient></defs><g
     id="layer1"
     transform="translate(-2367.3762,-368.86011)"><g
       id="g4"
       transform="translate(1.9073486e-6,368.86014)"><rect
         style="fill:#110222;fill-opacity:1;stroke-width:0.754366"
         id="rect3"
         width="250"
         height="350"
         x="0"
         y="0"
         ry="28.787729" /><rect
         style="fill:#3b3b4d;fill-opacity:1;stroke-width:0.702585"
         id="rect4"
         width="230"
         height="330"
         x="10.000002"
         y="10.000003"
         ry="20.407524" /></g></g><g
     id="layer5"
     transform="translate(-2367.3762,-368.86011)"><g
       id="g41"
       transform="translate(317.17207)"><use
         x="0"
         y="0"
         xlink:href="#g4"
         id="use16"
         transform="translate(2050.204)" /><use
         x="0"
         y="0"
         xlink:href="#path71"
         id="use33"
         transform="matrix(3.1051409,0,0,3.1051409,1251.0656,420.71996)"
         style="display:inline" /><use
         x="0"
         y="0"
         xlink:href="#g127"
         id="use39"
         transform="matrix(0.79004098,0,0,0.79004098,533.15747,502.80437)" /><use
         x="0"
         y="0"
         xlink:href="#g130"
         id="use41"
         transform="matrix(0.20993387,0,0,0.20993387,1628.6369,386.27755)" /><use
         x="0"
         y="0"
         xlink:href="#g130"
         id="use40"
         transform="matrix(-0.20993387,0,0,-0.20993387,2721.7712,701.44273)" /></g></g><g
     id="layer2"
     style="display:inline"
     transform="translate(-2367.3762,-368.86011)"><path
       id="path71"
       style="display:inline;stroke-width:0.0689838"
       d="m 283.18101,14.035851 v 14.61967 c -1e-5,6.19004 3.79832,11.48159 9.16314,13.614135 v 1.20234 c -10.17683,1.72043 -17.35354,8.141 -17.35345,15.52508 v 6.28082 h 22.62492 22.62492 v -6.28082 c 10e-5,-7.38408 -7.17662,-13.80465 -17.35345,-15.52508 v -1.20234 c 5.36483,-2.132545 9.16314,-7.424085 9.16314,-13.614135 v -14.61967 l -7.21423,2.77589 -7.21424,-2.77589 h -0.0123 l -7.21423,2.77589 z" /></g><g
     id="layer4"
     transform="translate(-2367.3762,-368.86011)"><g
       id="g130"
       transform="translate(186.15015,0.26424599)"><rect
         style="fill:#cccccc;fill-opacity:1;fill-rule:nonzero;stroke-width:0.388936"
         id="rect90-4-6"
         width="155.575"
         height="155.575"
         x="1923.7239"
         y="18.548763"
         ry="29.99906" /><g
         id="g127"
         transform="matrix(0.88950901,0,0,0.88950901,219.31919,10.714602)"
         style="fill:#f2f2f2"><path
           id="rect126"
           style="opacity:1;fill:#f9f9f9;stroke-width:0.252965"
           d="m 1997.8993,38.74251 h 11.3384 c 3.0395,0 17.4796,42.618808 17.4796,55.387665 v 53.153245 c 0,6.81472 -5.0777,12.30094 -11.3849,12.30094 h -23.5278 c -6.3073,0 -11.385,-5.48622 -11.385,-12.30094 V 94.130175 c 0,-12.768857 14.4402,-55.387665 17.4797,-55.387665 z" /><rect
           style="opacity:1;fill:#e6e6e6;fill-opacity:1;fill-rule:nonzero;stroke-width:0.31441"
           id="rect127"
           width="24.207928"
           height="8.1078615"
           x="1991.4645"
           y="33.285236"
           ry="4.0539308" /></g></g></g></svg>
