<?xml version="1.0" encoding="UTF-8" standalone="no"?>
<!-- Created with Inkscape (http://www.inkscape.org/) -->

<svg
   width="250.00002mm"
   height="349.99994mm"
   viewBox="0 0 250.00002 349.99994"
   version="1.1"
   id="svg1"
   xml:space="preserve"
   xmlns:xlink="http://www.w3.org/1999/xlink"
   xmlns="http://www.w3.org/2000/svg"
   xmlns:svg="http://www.w3.org/2000/svg"><defs
     id="defs1"><linearGradient
       id="swatch50"><stop
         style="stop-color:#000000;stop-opacity:1;"
         offset="0"
         id="stop50" /></linearGradient></defs><g
     id="layer1"
     transform="translate(-287.17199,-368.86011)"><g
       id="g4"
       transform="translate(1.9073486e-6,368.86014)"><rect
         style="fill:#110222;fill-opacity:1;stroke-width:0.754366"
         id="rect3"
         width="250"
         height="350"
         x="0"
         y="0"
         ry="28.787729" /><rect
         style="fill:#3b3b4d;fill-opacity:1;stroke-width:0.702585"
         id="rect4"
         width="230"
         height="330"
         x="10.000002"
         y="10.000003"
         ry="20.407524" /></g></g><g
     id="layer5"
     transform="translate(-287.17199,-368.86011)"><g
       id="g44"
       transform="translate(-2060.204)"><use
         x="0"
         y="0"
         xlink:href="#g4"
         id="use17"
         transform="translate(2347.376)" /><use
         x="0"
         y="0"
         xlink:href="#path71"
         id="use34"
         transform="matrix(3.1051409,0,0,3.1051409,1548.2376,420.71996)"
         style="display:inline" /><use
         x="0"
         y="0"
         xlink:href="#text127"
         id="use42"
         transform="matrix(0.32763954,0,0,0.32763954,1754.0516,476.71313)" /><use
         x="0"
         y="0"
         xlink:href="#g131"
         id="use44"
         transform="matrix(0.20993387,0,0,0.20993391,2199.3631,386.27754)" /><use
         x="0"
         y="0"
         xlink:href="#g131"
         id="use43"
         transform="matrix(-0.20993387,0,0,-0.20993391,2745.3889,701.44274)" /></g></g><g
     id="layer2"
     style="display:inline"
     transform="translate(-287.17199,-368.86011)"><path
       id="path71"
       style="display:inline;stroke-width:0.0689838"
       d="m 283.18101,14.035851 v 14.61967 c -1e-5,6.19004 3.79832,11.48159 9.16314,13.614135 v 1.20234 c -10.17683,1.72043 -17.35354,8.141 -17.35345,15.52508 v 6.28082 h 22.62492 22.62492 v -6.28082 c 10e-5,-7.38408 -7.17662,-13.80465 -17.35345,-15.52508 v -1.20234 c 5.36483,-2.132545 9.16314,-7.424085 9.16314,-13.614135 v -14.61967 l -7.21423,2.77589 -7.21424,-2.77589 h -0.0123 l -7.21423,2.77589 z" /></g><g
     id="layer4"
     transform="translate(-287.17199,-368.86011)"><g
       id="g131"
       transform="translate(-1303.0503,0.26424599)"><rect
         style="fill:#ffaaee;fill-opacity:1;fill-rule:nonzero;stroke-width:0.388936"
         id="rect90-4-6-4"
         width="155.575"
         height="155.575"
         x="2109.874"
         y="18.548763"
         ry="29.99906" /><text
         xml:space="preserve"
         style="font-style:normal;font-variant:normal;font-weight:normal;font-stretch:normal;font-size:161.211px;font-family:'Kristen ITC';-inkscape-font-specification:'Kristen ITC';text-align:start;writing-mode:lr-tb;direction:ltr;text-anchor:start;opacity:1;fill:#ff80e5;fill-opacity:1;fill-rule:nonzero;stroke-width:13.4343"
         x="2161.3694"
         y="150.25693"
         id="text127"><tspan
           id="tspan127"
           style="font-style:normal;font-variant:normal;font-weight:normal;font-stretch:normal;font-family:'Kristen ITC';-inkscape-font-specification:'Kristen ITC';stroke-width:13.4343"
           x="2161.3694"
           y="150.25693">?</tspan></text></g></g></svg>
