<?xml version="1.0" encoding="UTF-8" standalone="no"?>
<!-- Created with Inkscape (http://www.inkscape.org/) -->

<svg
   width="250.00005mm"
   height="349.99994mm"
   viewBox="0 0 250.00005 349.99994"
   version="1.1"
   id="svg1"
   xml:space="preserve"
   xmlns:xlink="http://www.w3.org/1999/xlink"
   xmlns="http://www.w3.org/2000/svg"
   xmlns:svg="http://www.w3.org/2000/svg"><defs
     id="defs1"><linearGradient
       id="swatch50"><stop
         style="stop-color:#000000;stop-opacity:1;"
         offset="0"
         id="stop50" /></linearGradient></defs><g
     id="layer1"
     transform="translate(-584.34398,-368.86011)"><g
       id="g4"
       transform="translate(1.9073486e-6,368.86014)"><rect
         style="fill:#110222;fill-opacity:1;stroke-width:0.754366"
         id="rect3"
         width="250"
         height="350"
         x="0"
         y="0"
         ry="28.787729" /><rect
         style="fill:#3b3b4d;fill-opacity:1;stroke-width:0.702585"
         id="rect4"
         width="230"
         height="330"
         x="10.000002"
         y="10.000003"
         ry="20.407524" /></g></g><g
     id="layer5"
     transform="translate(-584.34398,-368.86011)"><g
       id="g40"
       transform="translate(-1168.688)"><use
         x="0"
         y="0"
         xlink:href="#g4"
         id="use15"
         transform="translate(1753.032)" /><use
         x="0"
         y="0"
         xlink:href="#path71"
         id="use32"
         transform="matrix(3.1051409,0,0,3.1051409,953.89357,420.71996)"
         style="display:inline" /><use
         x="0"
         y="0"
         xlink:href="#g126"
         id="use30"
         transform="matrix(0.67000413,0,0,0.67000413,661.7324,436.55359)" /><use
         x="0"
         y="0"
         xlink:href="#g129"
         id="use38"
         transform="matrix(0.20993383,0,0,0.20993371,1565.94,386.27755)" /><use
         x="0"
         y="0"
         xlink:href="#g129"
         id="use31"
         transform="matrix(-0.20993383,0,0,-0.20993371,2190.124,701.44272)" /></g></g><g
     id="layer2"
     style="display:inline"
     transform="translate(-584.34398,-368.86011)"><path
       id="path71"
       style="display:inline;stroke-width:0.0689838"
       d="m 283.18101,14.035851 v 14.61967 c -1e-5,6.19004 3.79832,11.48159 9.16314,13.614135 v 1.20234 c -10.17683,1.72043 -17.35354,8.141 -17.35345,15.52508 v 6.28082 h 22.62492 22.62492 v -6.28082 c 10e-5,-7.38408 -7.17662,-13.80465 -17.35345,-15.52508 v -1.20234 c 5.36483,-2.132545 9.16314,-7.424085 9.16314,-13.614135 v -14.61967 l -7.21423,2.77589 -7.21424,-2.77589 h -0.0123 l -7.21423,2.77589 z" /></g><g
     id="layer4"
     transform="translate(-584.34398,-368.86011)"><g
       id="g129"
       transform="translate(-744.60009,0.26424599)"><rect
         style="fill:#646464;fill-opacity:1;fill-rule:nonzero;stroke-width:0.388936"
         id="rect90-4-0"
         width="155.575"
         height="155.575"
         x="1737.5739"
         y="18.548763"
         ry="29.99906" /><g
         id="g126"
         transform="matrix(0.91504789,0,0,0.91504789,154.21877,8.3637153)"><path
           style="display:inline;opacity:1;fill:#1a1a1a;fill-opacity:1;fill-rule:nonzero"
           d="m 1815.1018,512.13249 h -63.1102 c 0,0 -5.2699,-0.28475 -8.6082,3.19294 -4.8316,5.03335 -1.3339,13.93929 8.2665,24.84994 9.6005,10.91065 25.434,16.97132 35.858,16.00213 10.424,-0.96919 18.9009,-5.49635 27.5939,-5.85604 z m 0,0 h 63.1102 c 0,0 5.2699,-0.28475 8.6082,3.19294 4.8316,5.03335 1.3339,13.93929 -8.2665,24.84994 -9.6005,10.91065 -25.434,16.97132 -35.858,16.00213 -10.424,-0.96919 -18.9009,-5.49635 -27.5939,-5.85604 z"
           id="path123"
           transform="translate(0.25955101,-435.82199)" /><path
           style="display:inline;opacity:1;fill:#999999;fill-opacity:1;fill-rule:nonzero;stroke-width:0.264583"
           d="m 1789.1513,527.22015 c 13.1871,1.59898 12.8954,5.08783 12.6672,7.3921 -0.2282,2.30426 -2.182,10.79402 -17.6603,10.81061 -15.4783,0.0166 -21.1874,-7.26267 -21.7722,-13.85465 -0.5848,-6.59198 13.5782,-5.94705 26.7653,-4.34806 z m 51.901,0 c -13.1871,1.59898 -12.8954,5.08783 -12.6672,7.3921 0.2282,2.30426 2.182,10.79402 17.6603,10.81061 15.4783,0.0166 21.1874,-7.26267 21.7722,-13.85465 0.5848,-6.59198 -13.5782,-5.94705 -26.7653,-4.34806 z"
           id="path125"
           transform="translate(0.25955101,-438.49345)" /></g></g></g></svg>
