<?xml version="1.0" encoding="UTF-8" standalone="no"?>
<!-- Created with Inkscape (http://www.inkscape.org/) -->

<svg
   width="249.99998mm"
   height="349.99994mm"
   viewBox="0 0 249.99998 349.99994"
   version="1.1"
   id="svg1"
   xml:space="preserve"
   xmlns:xlink="http://www.w3.org/1999/xlink"
   xmlns="http://www.w3.org/2000/svg"
   xmlns:svg="http://www.w3.org/2000/svg"><defs
     id="defs1"><linearGradient
       id="swatch50"><stop
         style="stop-color:#000000;stop-opacity:1;"
         offset="0"
         id="stop50" /></linearGradient></defs><g
     id="layer1"
     transform="translate(-1475.86,-368.86011)"><g
       id="g4"
       transform="translate(1.9073486e-6,368.86014)"><rect
         style="fill:#110222;fill-opacity:1;stroke-width:0.754366"
         id="rect3"
         width="250"
         height="350"
         x="0"
         y="0"
         ry="28.787729" /><rect
         style="fill:#3b3b4d;fill-opacity:1;stroke-width:0.702585"
         id="rect4"
         width="230"
         height="330"
         x="10.000002"
         y="10.000003"
         ry="20.407524" /></g></g><g
     id="layer5"
     transform="translate(-1475.86,-368.86011)"><g
       id="g60"
       transform="translate(317.17204)"><use
         x="0"
         y="0"
         xlink:href="#g4"
         id="use8"
         transform="translate(1158.688)" /><use
         x="0"
         y="0"
         xlink:href="#path71"
         id="use5"
         transform="matrix(3.1051409,0,0,3.1051409,359.54957,420.71996)"
         style="display:inline" /><use
         x="0"
         y="0"
         xlink:href="#g111"
         id="use24"
         transform="matrix(0.89717124,0,0,0.89717124,48.24866,468.18882)" /><use
         x="0"
         y="0"
         xlink:href="#g112"
         id="use26"
         transform="matrix(0.20993382,0,0,0.20993376,854.35856,386.27755)" /><use
         x="0"
         y="0"
         xlink:href="#g112"
         id="use25"
         transform="matrix(-0.20993382,0,0,-0.20993376,1713.0174,701.44273)" /></g></g><g
     id="layer2"
     style="display:inline"
     transform="translate(-1475.86,-368.86011)"><path
       id="path71"
       style="display:inline;stroke-width:0.0689838"
       d="m 283.18101,14.035851 v 14.61967 c -1e-5,6.19004 3.79832,11.48159 9.16314,13.614135 v 1.20234 c -10.17683,1.72043 -17.35354,8.141 -17.35345,15.52508 v 6.28082 h 22.62492 22.62492 v -6.28082 c 10e-5,-7.38408 -7.17662,-13.80465 -17.35345,-15.52508 v -1.20234 c 5.36483,-2.132545 9.16314,-7.424085 9.16314,-13.614135 v -14.61967 l -7.21423,2.77589 -7.21424,-2.77589 h -0.0123 l -7.21423,2.77589 z" /></g><g
     id="layer4"
     transform="translate(-1475.86,-368.86011)"><g
       id="g112"
       transform="translate(186.15009)"><rect
         style="fill:#de8787;fill-opacity:1;fill-rule:nonzero;stroke-width:0.388936"
         id="rect90-4-7"
         width="155.575"
         height="155.575"
         x="1365.2738"
         y="18.813009"
         ry="29.99906" /><g
         id="g111"
         transform="rotate(45,1721.6336,206.11257)"><path
           id="rect109"
           style="opacity:1;fill:#cd4d4d;fill-opacity:1;fill-rule:nonzero;stroke-width:0.264583"
           d="m 1447.2165,246.28418 -17.9208,27.37353 4.2333,82.31384 h -15.287 a 4.1392153,4.1392153 135 0 0 -4.1392,4.13922 v 4.13897 a 4.1392153,4.1392153 45 0 0 4.1392,4.13922 h 21.143 l 0,27.09323 a 4.1392153,4.1392153 45 0 0 4.1392,4.13922 h 7.3847 a 4.1392153,4.1392153 135 0 0 4.1392,-4.13922 v -27.09323 h 21.143 a 4.1392153,4.1392153 135 0 0 4.1392,-4.13922 v -4.13897 a 4.1392153,4.1392153 45 0 0 -4.1392,-4.13922 h -15.2871 l 4.2333,-82.31384 z" /><path
           id="rect109-5"
           style="fill:#d35f5f;fill-opacity:1;fill-rule:nonzero;stroke-width:0.264583"
           d="m 1433.529,355.97155 h -15.287 a 4.1392153,4.1392153 135 0 0 -4.1392,4.13922 v 4.13897 a 4.1392153,4.1392153 45 0 0 4.1392,4.13922 h 21.143 l 0,27.09323 a 4.1392153,4.1392153 45 0 0 4.1392,4.13922 h 7.3847 a 4.1392153,4.1392153 135 0 0 4.1392,-4.13922 v -27.09323 h 21.143 a 4.1392153,4.1392153 135 0 0 4.1392,-4.13922 v -4.13897 a 4.1392153,4.1392153 45 0 0 -4.1392,-4.13922 h -15.2871 z" /></g></g></g></svg>
