<?xml version="1.0" encoding="UTF-8" standalone="no"?>
<!-- Created with Inkscape (http://www.inkscape.org/) -->

<svg
   width="249.99998mm"
   height="349.99994mm"
   viewBox="0 0 249.99998 349.99994"
   version="1.1"
   id="svg1"
   xml:space="preserve"
   xmlns:xlink="http://www.w3.org/1999/xlink"
   xmlns="http://www.w3.org/2000/svg"
   xmlns:svg="http://www.w3.org/2000/svg"><defs
     id="defs1"><linearGradient
       id="swatch50"><stop
         style="stop-color:#000000;stop-opacity:1;"
         offset="0"
         id="stop50" /></linearGradient></defs><g
     id="layer1"
     transform="translate(-2070.2041,-368.86011)"><g
       id="g4"
       transform="translate(1.9073486e-6,368.86014)"><rect
         style="fill:#110222;fill-opacity:1;stroke-width:0.754366"
         id="rect3"
         width="250"
         height="350"
         x="0"
         y="0"
         ry="28.787729" /><rect
         style="fill:#3b3b4d;fill-opacity:1;stroke-width:0.702585"
         id="rect4"
         width="230"
         height="330"
         x="10.000002"
         y="10.000003"
         ry="20.407524" /></g></g><g
     id="layer5"
     transform="translate(-2070.2041,-368.86011)"><g
       id="g23"
       transform="translate(1495.86)"><use
         x="0"
         y="0"
         xlink:href="#g4"
         id="use6"
         transform="translate(574.34402)" /><use
         x="0"
         y="0"
         xlink:href="#path71"
         id="use13"
         transform="matrix(3.1051409,0,0,3.1051409,-224.79441,420.71996)"
         style="display:inline" /><use
         x="0"
         y="0"
         xlink:href="#g105"
         id="use20"
         transform="matrix(0.63183554,0,0,0.63183554,93.052564,504.68153)" /><use
         x="0"
         y="0"
         xlink:href="#g107"
         id="use22"
         transform="matrix(0.20993381,0,0,0.20993381,191.85618,386.27752)" /><use
         x="0"
         y="0"
         xlink:href="#g107"
         id="use21"
         transform="matrix(-0.20993382,0,0,-0.20993381,1206.8318,701.44275)" /></g></g><g
     id="layer2"
     style="display:inline"
     transform="translate(-2070.2041,-368.86011)"><path
       id="path71"
       style="display:inline;stroke-width:0.0689838"
       d="m 283.18101,14.035851 v 14.61967 c -1e-5,6.19004 3.79832,11.48159 9.16314,13.614135 v 1.20234 c -10.17683,1.72043 -17.35354,8.141 -17.35345,15.52508 v 6.28082 h 22.62492 22.62492 v -6.28082 c 10e-5,-7.38408 -7.17662,-13.80465 -17.35345,-15.52508 v -1.20234 c 5.36483,-2.132545 9.16314,-7.424085 9.16314,-13.614135 v -14.61967 l -7.21423,2.77589 -7.21424,-2.77589 h -0.0123 l -7.21423,2.77589 z" /></g><g
     id="layer4"
     transform="translate(-2070.2041,-368.86011)"><g
       id="g107"
       transform="translate(930.75023,1.5059719)"><rect
         style="fill:#ad8ab5;fill-opacity:1;fill-rule:nonzero;stroke-width:0.388936"
         id="rect90-6"
         width="155.575"
         height="155.575"
         x="992.97375"
         y="17.307037"
         ry="29.99906" /><g
         id="g105"
         transform="matrix(1.098095,0,0,1.098095,485.16541,-44.838757)"><path
           id="path102"
           style="opacity:1;fill:#9d6387;fill-opacity:1;fill-rule:nonzero;stroke-width:0.231679"
           d="m 517.44025,75.58309 c -2.90422,0 -5.24222,2.338006 -5.24222,5.242213 v 2.329922 c 0,2.904207 2.338,5.242212 5.24222,5.242212 h 3.31682 v 13.253223 c -15.10898,5.31557 -25.21781,19.5882 -25.21782,35.60496 -10e-5,20.84551 16.89842,37.74423 37.74393,37.74438 20.84569,1e-4 37.74448,-16.89869 37.74438,-37.74438 -10e-6,-16.01676 -10.10885,-30.28939 -25.21783,-35.60496 V 88.397437 h 3.31683 c 2.9042,0 5.24221,-2.338005 5.24221,-5.242212 v -2.329922 c 0,-2.904207 -2.33801,-5.242213 -5.24221,-5.242213 z" /><circle
           style="opacity:1;fill:#d3acc0;fill-opacity:1;fill-rule:nonzero;stroke-width:0.357402"
           id="path103"
           cx="541.38208"
           cy="122.33462"
           r="6.4695973" /><circle
           style="opacity:1;fill:#d3acc0;fill-opacity:1;fill-rule:nonzero;stroke-width:0.222389"
           id="path104"
           cx="545.35999"
           cy="151.23975"
           r="7.6039548" /><circle
           style="opacity:1;fill:#d3acc0;fill-opacity:1;fill-rule:nonzero;stroke-width:0.296423"
           id="path105"
           cx="518.79962"
           cy="140.95818"
           r="8.9429617" /></g></g></g></svg>
