<?xml version="1.0" encoding="UTF-8" standalone="no"?>
<!-- Created with Inkscape (http://www.inkscape.org/) -->

<svg
   width="155.575mm"
   height="155.575mm"
   viewBox="0 0 155.575 155.575"
   version="1.1"
   id="svg1"
   xml:space="preserve"
   xmlns:xlink="http://www.w3.org/1999/xlink"
   xmlns="http://www.w3.org/2000/svg"
   xmlns:svg="http://www.w3.org/2000/svg"><defs
     id="defs1"><linearGradient
       id="swatch50"><stop
         style="stop-color:#000000;stop-opacity:1;"
         offset="0"
         id="stop50" /></linearGradient></defs><g
     id="layer4"
     transform="translate(-1365.2739,-18.813008)"><g
       id="g2"
       transform="translate(186.15007)"><rect
         style="fill:#87aade;fill-opacity:1;fill-rule:nonzero;stroke-width:0.388936"
         id="rect90-4-3"
         width="155.575"
         height="155.575"
         x="1179.1238"
         y="18.813009"
         ry="29.99906" /><g
         id="g1"
         transform="matrix(-1.0130651,0,0,1.0130651,2531.5784,-195.1981)"><path
           id="path132"
           style="opacity:1;fill:#afc6e9;fill-opacity:1;fill-rule:nonzero;stroke-width:0.264583"
           d="m 1256.9111,233.61673 a 48.913528,48.913528 0 0 1 48.9135,48.91347 48.913528,48.913528 0 0 1 -19.3353,38.95683 h -59.1568 a 48.913528,48.913528 0 0 1 -19.3348,-38.95683 48.913528,48.913528 0 0 1 48.9134,-48.91347 z" /><path
           style="fill:#d7e3f4;fill-opacity:1;fill-rule:nonzero;stroke-width:0.264583"
           id="path137-8"
           d="m 1231.6758,254.12724 2.2525,6.23934 6.2394,2.25256 -6.2394,2.25256 -2.2525,6.23934 -2.2526,-6.23934 -6.2393,-2.25256 6.2393,-2.25256 z"
           transform="matrix(1.6006229,0.13890356,-0.13890356,1.6006229,-675.78185,-335.93898)" /><use
           x="0"
           y="0"
           xlink:href="#path137-8"
           id="use138"
           transform="rotate(-23.938273,1322.9481,331.46613)" /><use
           x="0"
           y="0"
           xlink:href="#use138"
           id="use139"
           transform="matrix(0.78638031,0.57634339,-0.57634339,0.78638031,473.23716,-641.67901)" /><path
           id="rect139"
           style="opacity:1;fill:#afc6e9;fill-opacity:1;fill-rule:nonzero"
           d="m 1217.8457,386.92773 c -4.3422,0 -7.7441,3.40195 -7.7441,7.74414 0,4.34219 3.4019,7.74415 7.7441,7.74415 h 87.9141 c 4.342,0 7.7461,-3.40263 7.7461,-7.74415 0,-4.34152 -3.4041,-7.74414 -7.7461,-7.74414 z"
           transform="translate(-3.5747676,-60.771049)" /></g></g></g></svg>
