<?xml version="1.0" encoding="UTF-8" standalone="no"?>
<!-- Created with Inkscape (http://www.inkscape.org/) -->

<svg
   width="155.575mm"
   height="155.575mm"
   viewBox="0 0 155.575 155.575"
   version="1.1"
   id="svg1"
   xml:space="preserve"
   xmlns="http://www.w3.org/2000/svg"
   xmlns:svg="http://www.w3.org/2000/svg"><defs
     id="defs1"><linearGradient
       id="swatch50"><stop
         style="stop-color:#000000;stop-opacity:1;"
         offset="0"
         id="stop50" /></linearGradient></defs><g
     id="layer4"
     transform="translate(-992.97373,-18.813008)"><g
       id="g129"
       transform="translate(-744.60009,0.26424599)"><rect
         style="fill:#646464;fill-opacity:1;fill-rule:nonzero;stroke-width:0.388936"
         id="rect90-4-0"
         width="155.575"
         height="155.575"
         x="1737.5739"
         y="18.548763"
         ry="29.99906" /><g
         id="g126"
         transform="matrix(0.91504789,0,0,0.91504789,154.21877,8.3637153)"><path
           style="display:inline;opacity:1;fill:#1a1a1a;fill-opacity:1;fill-rule:nonzero"
           d="m 1815.1018,512.13249 h -63.1102 c 0,0 -5.2699,-0.28475 -8.6082,3.19294 -4.8316,5.03335 -1.3339,13.93929 8.2665,24.84994 9.6005,10.91065 25.434,16.97132 35.858,16.00213 10.424,-0.96919 18.9009,-5.49635 27.5939,-5.85604 z m 0,0 h 63.1102 c 0,0 5.2699,-0.28475 8.6082,3.19294 4.8316,5.03335 1.3339,13.93929 -8.2665,24.84994 -9.6005,10.91065 -25.434,16.97132 -35.858,16.00213 -10.424,-0.96919 -18.9009,-5.49635 -27.5939,-5.85604 z"
           id="path123"
           transform="translate(0.25955101,-435.82199)" /><path
           style="display:inline;opacity:1;fill:#999999;fill-opacity:1;fill-rule:nonzero;stroke-width:0.264583"
           d="m 1789.1513,527.22015 c 13.1871,1.59898 12.8954,5.08783 12.6672,7.3921 -0.2282,2.30426 -2.182,10.79402 -17.6603,10.81061 -15.4783,0.0166 -21.1874,-7.26267 -21.7722,-13.85465 -0.5848,-6.59198 13.5782,-5.94705 26.7653,-4.34806 z m 51.901,0 c -13.1871,1.59898 -12.8954,5.08783 -12.6672,7.3921 0.2282,2.30426 2.182,10.79402 17.6603,10.81061 15.4783,0.0166 21.1874,-7.26267 21.7722,-13.85465 0.5848,-6.59198 -13.5782,-5.94705 -26.7653,-4.34806 z"
           id="path125"
           transform="translate(0.25955101,-438.49345)" /></g></g></g></svg>
